<?xml version="1.0" encoding="utf-8"?>
<!-- Generator: Adobe Illustrator 18.0.0, SVG Export Plug-In . SVG Version: 6.00 Build 0)  -->
<!DOCTYPE svg PUBLIC "-//W3C//DTD SVG 1.1//EN" "http://www.w3.org/Graphics/SVG/1.1/DTD/svg11.dtd">
<svg version="1.1" id="Layer_1" xmlns="http://www.w3.org/2000/svg" xmlns:xlink="http://www.w3.org/1999/xlink" x="0px" y="0px"
	 width="512px" height="512px" viewBox="0 0 512 512" enable-background="new 0 0 512 512" xml:space="preserve">
<g>
	<path fill="white" d="M168.3,422.1c19.2,0,37.6,0.1,55.8,0.1c71.8,0,138.9-0.5,233.7-3.1l-0.2-7.9c-17.5,0.5-34,0.9-49.8,1.2
		c-1.4-21.9-2.8-42.3-4.2-62.5c-1.2-17.6-2.4-35.2-3.6-53.9c-0.6-9-8.1-16.1-17.2-16.2c-6,0-11.9,0-17.8-0.1
		c-1.6-12.1-3.1-24.2-4.5-35.9c-1.6-13.5-3.3-27.5-5.2-41.6c-0.4-3-1-7.2-3.5-10.5c-4.4-5.7-12.2-6.2-16.5-6.5
		c-28.1-1.9-56.3-2.9-84.6-3.1v-28.5c3.5-3,6.5-6.4,9.4-9.8c5.8-6.7,11.7-13.6,15.9-21.9c2.4-4.8,4-9.7,4.6-14.4
		c3.5-1.8,6.9-3.6,10.4-5.5c0.7,1.6,1.4,3.2,1.8,4.4l0.6,1c1.1,1.4,2.8,2.3,4.7,2.3c1.4,0,2.8-0.5,3.9-1.3c1.8-1.3,2.6-3.2,3.2-4.4
		l8.5-19.2l-5.2-0.7c-2.1-0.3-5.7-0.6-9.4-0.8c-3.5-0.3-6.9-0.5-8.9-0.8c-0.2,0-0.4,0-0.6,0l-2.4,0.1l-1.2,1.8
		c-1.4,2.3-0.7,4.8,1.9,10.4c-2.3,1.3-4.6,2.7-7,3.9c-0.2-1.7-0.4-3.3-0.9-4.9c-1.5-5.5-4.6-9.3-8.6-10.9c-4.3-1.7-9.4-0.7-14.7,2.8
		c-4.5,3-7.3,6.7-9.3,10.2c-0.6-1.3-1.3-2.5-2.2-3.9c-3-5-10.6-10.4-17-9.9c-6.8,0.5-12.9,6.2-14.8,13.7c-1.8,7,1.2,15.7,3.1,20.3
		c1.4,3.2,2.8,6.2,4.3,9.1c-1.8,0.7-3.6,1.4-5.4,2.2l-1.5-0.2c-1.4-0.2-3-0.9-4.6-1.7c-2.4-1.2-5.2-2.5-8.6-2.5
		c-3.2,0-5.9,1.3-8.1,2.3l-26,12.1l5.2,4c4.2,3.2,9,5.8,14.1,7.6c-1.7,4.6-2.9,9.4-3.8,14.3l-1.8,10.6l8.2-6.8
		c6.1-5.1,12.9-9.4,20.2-12.7l1.6-0.7l5.8-17.7c2.8-1.3,5.7-2.5,8.5-3.6c4.8,8,10.5,15.5,17.8,23.4l0.5,0.5l0,26
		c-28.8-0.1-57.7,0.7-86.3,2.4c-7.9,0.5-14.4,6.8-15,14.8l-6.3,80.3c-4.5,0-9-0.1-13.4-0.1c-9.5,0.1-17.1,7.2-17.4,16.6l-1,30.5
		l-0.5,0.1c0.1,0.7,0.3,1.5,0.5,2.3l-2.9,85.1c-11.7,0-23.9,0-36.5,0l0,7.9C102.7,422,136.7,422.1,168.3,422.1z M182.4,138.8
		l13.6-6.3c1.6-0.8,3.4-1.6,4.8-1.6c1.3,0,2.7,0.6,4.3,1.4c-5.4,2.7-11.1,5.7-17,9C186.1,140.6,184.2,139.8,182.4,138.8z
		 M203.9,147.9c-4,1.9-7.8,4-11.5,6.4c0.7-2.1,1.5-4.2,2.3-6.3l0.7-1.8c3.7-2,7.3-4,10.8-5.7L203.9,147.9z M298.4,91.3
		c1.2,0.1,2.5,0.2,3.7,0.3l-3.6,8.1c-0.6-1.5-1.4-3-2.1-4.5c-0.6-1.2-1.3-2.7-1.9-4.1C295.8,91.1,297.1,91.2,298.4,91.3z
		 M223.7,113.1c-2.6-6.1-3.6-11.8-2.8-15.2c0.9-3.6,3.9-7.5,8.1-7.8c2.8,0,7.5,3,9.3,6.1c1.6,2.6,2.5,4.4,3.3,7c0.8,2.4,2.9,4,5.4,4
		c2.3,0,4.3-1.4,5.2-3.5c2.3-5.4,4.8-8.7,8.6-11.3c3-2,5.6-2.8,7.5-2.1c2.3,0.9,3.5,4.3,3.9,5.7c0.6,2.1,0.8,4.3,0.8,6.6
		c-8.7,4.2-17.5,7.9-26.6,11.1l2.6,7.4c7.6-2.6,15.1-5.7,22.5-9.1c-0.7,2.1-1.5,4.3-2.6,6.5c-3.7,7.4-9.4,13.9-14.8,20.3
		c-2.7,3.1-5.4,6.2-8.4,8.9C235.8,136.5,229.3,126.3,223.7,113.1z M157,192.5c59-3.5,118.8-3.3,177.7,0.7c4.1,0.3,8.7,0.8,10.7,3.4
		c1.3,1.7,1.7,4.4,2,6.8c1.6,11.9,3.1,23.6,4.4,35.2c-3.7-1-7.2-3.9-9.5-7.1c-1.8-2.5-3.4-5.3-4.9-8.3c-2-3.7-4.1-7.6-6.9-11
		c-5.8-7-16.4-11.7-24.8-6.8c-6.9,4-8.7,12.2-10.1,18.8l-0.2,1.1c-0.7,3.3-3,11.1-8,11.7c-3.7,0.5-7.2-3.3-9-7
		c-1-2.1-1.7-4.3-2.4-6.7c-1-3.2-2-6.4-3.8-9.6c-3.6-6.3-11.4-11.6-18.8-8.9c-7.6,2.8-9,10.4-10.3,17.1c-0.5,2.8-1,5.4-1.9,7.5
		c-2.1,5.4-7.9,9.2-13.6,9c-5.8-0.2-11.3-4.3-13-9.9c-0.6-1.7-0.9-3.6-1.2-5.7c-1-6-2.3-13.6-11.1-16.7c-7.3-2.6-16.1,0-20.9,6.3
		c-2.9,3.8-4.5,8-6,12.1c-0.6,1.7-1.3,3.5-2,5.1c-1.2,2.6-4.5,8.8-9.7,9.5c-4.2,0.5-8.2-2.9-10.2-6.3c-3.1-5.4-4.9-10.1-5.5-14.5
		l1.5-18.6C149.7,195.9,153,192.7,157,192.5z M146.5,236.9c0,0.1,0,0.1,0.1,0.2c3.1,5.3,9.1,10.3,16.1,10.3c0.6,0,1.3,0,1.9-0.1
		c8.8-1.1,13.7-9.3,15.9-14.1c0.8-1.8,1.5-3.7,2.2-5.6c1.4-3.7,2.7-7.3,4.9-10.1c2.7-3.6,7.9-5.1,12-3.7c4.3,1.5,5,4.7,6,10.6
		c0.4,2.2,0.8,4.5,1.5,6.7c2.7,8.6,11.3,15.1,20.3,15.4c9,0.3,17.9-5.6,21.2-14c1.1-2.9,1.7-5.9,2.3-8.9c1.2-6.2,2.1-10,5.3-11.2
		c3.2-1.2,7.3,1.9,9.2,5.3c1.4,2.4,2.2,5.2,3.1,8.1c0.8,2.5,1.6,5.1,2.8,7.7c3,6.4,9.5,12.5,17.1,11.5c7.1-0.9,12.3-7.3,14.7-17.8
		l0.2-1.1c1.2-5.6,2.5-11.4,6.4-13.7c4.5-2.6,11,0.5,14.7,5c2.4,2.8,4.1,6.2,6,9.7c1.7,3.1,3.4,6.3,5.5,9.2
		c3.9,5.4,10.2,10,16.9,10.6c1.3,10.8,2.6,21.9,4.1,33c-28.7-0.1-57.2,0-84.9,0c-42.2,0.1-85.7,0.1-129-0.2L146.5,236.9z
		 M121.6,287.4C121.6,287.4,121.7,287.4,121.6,287.4c50.5,0.5,101.3,0.4,150.5,0.3c36-0.1,73.3-0.1,110.6,0c4.9,0,9,3.9,9.3,8.8
		c0.7,10.6,1.4,20.8,2.1,30.9l-10.7,25.7c-1.5,3.7-4.7,6.5-8.7,7.3c-3.7,0.8-7.3-0.2-9.9-2.6c-0.8-0.8-1.5-1.6-2.1-2.4
		c-2.9-4.1-4.6-9.1-6.5-14.3c-1.2-3.5-2.5-7.1-4.1-10.6c-4.6-9.6-14.8-18.7-26.1-16c-13.6,3.3-16.9,19.9-18.7,28.8
		c-1.8,9.2-6.7,19.7-14.7,19.3c-8.2-0.5-11.6-12.4-12.9-19.5c-1.1-6.1-4.6-24.6-19-26.8c-13.6-2-22.3,12-25.9,25.7
		c-3.9,15-9,22.1-16,22.5c-6.6,0.3-12.6-6.1-17.9-19.6c-6.5-16.4-16.4-24.7-27.1-22.8c-10.8,1.9-14.7,12.1-18.1,21.1
		c-2.4,6.4-4.9,12.9-9.6,16.4c-7.2,5.4-18.8,1.5-24.6-5.4c-6-7.1-8.4-16.8-10.3-25.9l1.1-32C112.4,291.4,116.5,287.4,121.6,287.4z
		 M115.4,359.5c8.3,9.7,24.4,14.7,35.3,6.6c6.5-4.8,9.4-12.5,12.2-19.9c3.6-9.3,6.2-15.1,12.2-16.1c9.5-1.7,16.1,12,18.5,18
		c2.4,6.1,9.8,24.5,24.7,24.5c0.3,0,0.6,0,1,0c14.3-0.7,20.1-16.5,23.2-28.4c2.6-10,8.7-21.2,17.1-19.9c5.9,0.9,10,7.6,12.4,20.4
		c3,16.1,10.2,25.3,20.2,25.9c13,0.8,20.3-12.7,22.9-25.6c2.1-10.7,5.2-20.9,12.8-22.7c6.8-1.6,13.8,4.7,17.2,11.8
		c1.5,3.1,2.6,6.3,3.8,9.7c1.9,5.5,3.9,11.2,7.5,16.3c0.9,1.3,2,2.5,3.2,3.6c4.6,4.3,10.8,6,17,4.6c6.5-1.4,11.9-6,14.3-12l4.6-11.1
		c0.1,1.8,0.2,3.6,0.4,5.4c1.4,20.2,2.8,40.4,4.2,62.2c-87.4,1.8-152.6,1.7-231.6,1.6c-19,0-38.9-0.1-60.1-0.1l2.1-62.3
		C111.7,354.6,113.4,357.1,115.4,359.5z"/>
</g>
</svg>
