<?xml version="1.0" encoding="utf-8"?>
<!-- Generator: Adobe Illustrator 18.0.0, SVG Export Plug-In . SVG Version: 6.00 Build 0)  -->
<!DOCTYPE svg PUBLIC "-//W3C//DTD SVG 1.1//EN" "http://www.w3.org/Graphics/SVG/1.1/DTD/svg11.dtd">
<svg version="1.1" id="Layer_1" xmlns="http://www.w3.org/2000/svg" xmlns:xlink="http://www.w3.org/1999/xlink" x="0px" y="0px"
	 width="512px" height="512px" viewBox="0 0 512 512" enable-background="new 0 0 512 512" xml:space="preserve">
<g>
	<path fill="white" d="M104.9,405.3c21.5,13.9,46,20.8,71,20.8c25.4,0,51.2-7.2,74.8-21.5c9.5,7.6,20.5,13.1,32.8,16.1
		c14.3,3.6,31.6,5.8,48.8,5.8c22,0,43.9-3.7,59.6-12.9c51.8-30.4,72.8-111.8,44-170.8c-15.1-30.8-45.4-52.4-81.2-58.7
		c0.2-0.2,0.5-0.4,0.7-0.6l0.2,0.1l0.2-0.4c1.5-1.2,3.1-2.4,4.3-3.5c8.5-7.1,12.7-11.6,18.9-18.3l4-4.3l-2.8-2.7
		c-2.8-2.6-4.1-4.6-5.8-7c-0.9-1.4-1.9-2.9-3.3-4.6l-1.2-1.5l-50.4-1.1c-2,0-5-0.1-7.5-0.1l-6.1,0l-1.1,2c-0.5,0.9-4.9,8.9-6.2,13.2
		l-0.6,2.1l1.4,1.6c4.5,5.2,9.7,10.2,14.7,15c2.9,2.8,5.8,5.6,8.5,8.4c-7.1,0.5-14.1,1.6-20.8,3.3c-17.7,4.6-33.5,12.9-47.1,24.7
		c-7.1-5.6-14.9-10.5-23.1-14.5c-41.8-20-90.6-14.2-124.4,14.8c-33.7,28.9-50.1,78.9-41.8,127.3C68.3,355.7,77.3,387.6,104.9,405.3z
		 M338.6,182.4c-1.9-0.1-3.7-0.1-5.5-0.1c-0.8-0.9-1.8-1.8-2.6-2.8c2.5-4.4,5.3-8.6,8.5-12.4c2.6,4.3,5.6,8.4,8.8,12.3
		c-1.5,1.2-2.8,2.2-3.7,2.8c-1.2,0-3,0.1-5.1,0.1C338.9,182.4,338.7,182.4,338.6,182.4z M330.7,155.8c-1.6-2.5-3.3-4.9-5-7.4
		l27.5,0.6c-1.9,2.9-4,5.8-6,8c-5.3,0.1-10.5,0.1-15.8,0L330.7,155.8z M355,173.7c-0.3,0.3-0.7,0.6-1.1,0.9
		c-2.6-3.1-4.9-6.4-7.1-9.8c6.2-0.1,12.4-0.2,18.6-0.5C362.4,167.3,359.4,170.1,355,173.7z M367.7,151.9c1,1.4,2,2.9,3.2,4.4
		c-4.5,0.2-9.1,0.4-13.6,0.5c1.8-2.5,3.6-5.2,5-7.7l3.5,0.1C366.6,150.1,367.2,151,367.7,151.9z M310.5,148.2l1.4,0
		c1.3,0,2.8,0,4.2,0c2,2.9,3.9,5.7,5.8,8.6c-4.9-0.1-9.8-0.3-14.7-0.6c-0.1-0.1-0.2-0.2-0.3-0.3
		C307.8,153.5,309.4,150.4,310.5,148.2z M319.5,168.6c-1.4-1.4-2.9-2.8-4.3-4.2c5.2,0.2,10.4,0.3,15.6,0.4c-2.2,2.8-4.2,5.8-6.1,8.9
		C323,171.9,321.2,170.3,319.5,168.6z M303.8,193.6c9.1-2.4,18.8-3.5,28.7-3.5c1.4,0.1,2.9,0.1,4.9,0.1c0.5,0,0.9,0,1.3,0
		c39.6,2.1,74.1,23.5,90,56.1c27.1,55.5,7.6,132.1-40.9,160.6c-25,14.7-70.5,14.2-102.6,6.2c-25.4-6.4-44.8-24-56.1-50.9
		c-7.5-17.9-11.1-37.6-10.3-57c0.9-22.6,7.4-44.2,18.9-62.6c1.9,1.9,3.7,3.8,5.4,5.8c2.7,3.2,5,6.6,7.2,10.2
		c-3.8,7.8-6.7,16.1-8.5,25c-0.2,0.8-0.3,1.6-0.5,2.5c-4.8,26.9-0.2,53.6,12.7,73.4c18.1,27.8,49.4,37.5,76.2,37.5
		c4,0,7.9-0.2,11.6-0.6c33.9-3.7,61.4-26.9,71.7-60.6c10.8-35.4,6.4-82.4-27.8-107.3c-25.6-18.7-55.8-15.9-82-11.7
		c-11.1,1.7-21.2,6.1-30.1,12.9c-3.9-4.9-8.2-9.5-12.9-13.7C273.3,205.3,287.7,197.8,303.8,193.6z M221.9,365.2
		c1.7,4,3.5,7.7,5.5,11.3c-33.5,19.4-85.3,19-112.1-13c-14-16.7-20-39.6-16.6-64.4c3.8-28.1,19.1-55.2,39.2-69.1
		c27.4-19,66.8-15.2,94.1,7.2c-12.7,19.8-19.9,43.1-20.8,67.6C210.2,325.4,214,346.3,221.9,365.2z M249.1,287.4
		c0.1-0.8,0.3-1.5,0.4-2.3c1.2-6.2,3.1-12.1,5.4-17.8c11.5,25,12.2,55.6,0.9,79.1C247.8,329.5,245.3,308.6,249.1,287.4z
		 M282.7,242.9c-1.4-2.4-2.8-4.7-4.4-7c7.9-6,16.9-9.9,26.7-11.4c24.7-3.9,53-6.6,76.2,10.3c31.1,22.6,34.9,65.8,24.9,98.6
		c-9.4,30.7-34.3,51.8-65,55.1c-18.2,2-40.5-0.9-58.7-12.2c10.4-15.1,16.2-35.8,16.9-60.2C299.8,296.8,297.4,268.4,282.7,242.9z
		 M112.3,217c31.5-27,76.9-32.4,115.9-13.7c20.3,9.7,37.2,25.2,47.8,43.5c13.8,23.9,16,50.8,15.5,69.1c-0.7,22.8-6,42-15.5,55.9
		c-5.7-4.5-10.9-10-15.3-16.6c-0.1-0.2-0.2-0.3-0.3-0.5c19-33.2,14.4-80.6-11.2-111.4c-29.2-35.1-81.2-44-115.9-19.8
		c-22.1,15.4-38.4,43.9-42.5,74.6c-3.6,27,2.9,52,18.4,70.5c16.8,20,42.3,28.8,67.9,28.8c19.3,0,38.7-5.1,54.3-14.1
		c3.9,5.9,8.2,11.2,13,15.9c-43.8,25.4-95.1,25.5-135.3-0.4c-25-16.1-33.3-45.5-36.1-61.6C65.3,291.3,80.7,244.2,112.3,217z"/>
	<path fill="white" d="M342.9,126.3c1.2-7.2,1.6-14.5,1.2-21.7l-7.9,0.4c0.4,6.7,0,13.4-1.1,19.9L342.9,126.3z"/>
	<polygon fill="white" points="380.5,101.5 366.4,127.2 373.1,131.3 375,128.4 374.8,128.3 387.4,105.3 	"/>
	
		<rect x="286.5" y="112.7" transform="matrix(0.4622 0.8868 -0.8868 0.4622 265.1975 -203.9982)" fill="white" width="28.5" height="7.9"/>
</g>
</svg>
