<?xml version="1.0" encoding="utf-8"?>
<!-- Generator: Adobe Illustrator 18.0.0, SVG Export Plug-In . SVG Version: 6.00 Build 0)  -->
<!DOCTYPE svg PUBLIC "-//W3C//DTD SVG 1.1//EN" "http://www.w3.org/Graphics/SVG/1.1/DTD/svg11.dtd">
<svg version="1.1" id="Layer_1" xmlns="http://www.w3.org/2000/svg" xmlns:xlink="http://www.w3.org/1999/xlink" x="0px" y="0px"
	 width="512px" height="512px" viewBox="0 0 512 512" enable-background="new 0 0 512 512" xml:space="preserve">
<g>
	<path fill="white" d="M160.1,293c-0.3,11.4-0.7,23.2-1.2,35.1c-1,26.6-2,54.1-1.6,81c0.2,11.7,9.5,20.8,21.5,20.8c0,0,0,0,0,0
		c9.4-0.1,18.9,0.2,28.2,0.5c7.9,0.3,16,0.5,24.1,0.5c8.9,0,16.8-0.3,23.9-1.1c2.8-0.2,8.7-0.8,11.7-5.4c1.7-2.6,1.8-5.6,1.9-7.7
		c1.2-31.1,2.3-63.9,3.2-97.5c0.8-29-2.4-53-9.9-73.2c-1.1-3-2.4-6.1-3.9-9.2c-2.1-4.6-4.4-9-6.7-13.3
		c-7.3-14.1-14.2-27.4-13.7-44.1l1.4-46.4c1.1,0,2.3,0.1,3.5,0.1l4.2,0.2l-0.2-4.2c-0.4-11.5-0.3-18.8,0.1-29.8l0.2-4.5l-4.5,0.4
		c-2.4,0.2-4.8,0.3-7.3,0.3c-5.5,0-10.5-0.5-15.4-1c-4.7-0.5-9.7-1-14.8-1c-5.5,0-10.8,0.6-16.1,1.8l-3.1,0.7l1,37.6l4-0.2
		c1.8-0.1,3.6-0.2,5.2-0.3l-0.3,38c-0.1,10.8-0.1,23-3.7,33.9c-2.9,8.9-8,16.8-13.3,25.1c-5.1,8-10.5,16.3-13.7,25.5
		C161.1,267.3,160.4,279.5,160.1,293z M260.1,420.2c-0.8,1.3-3.6,1.7-5.9,1.9c-6.9,0.7-14.5,1-23.1,1c-7.9,0-16-0.3-23.8-0.5
		c-7.9-0.3-16.1-0.5-24.1-0.5c-1.5,0-3,0-4.6,0c-7.3,0-13.2-5.8-13.3-13.1c-0.1-9.2-0.1-18.4,0.1-27.7c32.1-0.1,64.6,0,96.7,0.4
		c-0.4,11.8-0.8,23.4-1.3,34.8C260.7,417.7,260.6,419.5,260.1,420.2z M264,319.1c-0.5,18.5-1.1,36.8-1.7,54.7
		c-32.2-0.3-64.7-0.4-96.9-0.4c0.3-15.1,0.8-30.2,1.4-45.1c0.4-11.9,0.9-23.7,1.2-35.2c0-0.4,0-0.8,0-1.2c9.8,0.4,19.7,1.2,29.4,2
		c13,1.1,26.3,2.3,39.6,2.3c8.9,0,17.7-0.6,26.5-1.9C264,302.2,264.2,310.4,264,319.1z M194.5,125.3l-0.6-23
		c8.1-1.5,16.5-0.9,25.1,0c5.1,0.5,10.3,1.1,16.2,1.1c1.2,0,2.4,0,3.6-0.1c-0.3,7.6-0.3,13.8-0.1,21.6l-3.3-0.1
		c-4.2-0.1-8.4-0.1-12.6-0.1c-0.2,0-0.5,0-0.7,0c-1.9,0-3.8,0-5.8,0c-4.7,0-9.3,0.1-14.5,0.3c-0.6,0-1.2,0-1.9,0l-3.8,0.1l0,0.1
		C195.6,125.3,195.1,125.3,194.5,125.3z M185.5,234.4c5.4-8.4,11-17.1,14.2-26.9c3.9-12.1,4-24.9,4.1-36.3l0.3-38.4
		c0.3,0,0.6,0,0.8,0c3.8-0.1,7.6-0.2,11.3-0.2c0.5,0,1.1,0,1.6,0c4.2,0,8.4,0.1,13.4,0.2l-1.4,46.5c-0.6,18.7,7.2,33.6,14.6,47.9
		c2.2,4.2,4.5,8.6,6.5,13c1.4,2.9,2.6,5.8,3.6,8.6c4.1,11.2,6.8,23.7,8.3,37.7c-21.3,3.4-43.4,1.5-64.8-0.3
		c-9.8-0.8-19.8-1.7-29.8-2c0.5-9.3,1.5-17.9,4.3-25.9C175.6,249.9,180.4,242.4,185.5,234.4z"/>
	<path fill="white" d="M305.7,225.2c-0.3,8-0.1,20.8,0.1,33.2c0.2,12.3,0.4,25,0.1,32.8c-0.2,4.1-0.4,8.4,0.4,12.8
		c0.9,5.2,3,10,5.2,14.5c5,10.2,9.1,17.1,14.7,24.9c0,7.7-0.4,14.1-0.9,21.3c-0.5,7.6-1.1,16.1-1.1,27.4c-3.9,4-7.2,7.7-10.6,11.6
		c-2.1,2.4-4.3,4.9-6.6,7.4c-1.9,2.1-5.5,6-5.1,11c0.4,5,6.6,5,9,5c0,0,0,0,0,0c3.4,0,7.4-0.4,9.7-0.7c0.7-0.1,1.2-0.1,1.4-0.1
		c3.1-0.1,6.1,0.1,9.1,0.3l2.2,0.1c0.5,0,1.3,0.1,2.1,0.2c1.8,0.2,4.1,0.4,6.2,0.4c3.2,0,5.4-0.5,7-1.7c1.2-0.9,2-2.2,2.2-3.6
		c0.3-2.7-1.4-4.8-2.7-6.4c-0.2-0.3-0.4-0.5-0.6-0.8c-0.5-0.7-1.1-1.4-1.7-2.1c-0.6-0.7-1.2-1.5-1.8-2.3c-1.8-2.4-3.2-5-4.8-7.6
		c-2-3.5-4.2-7.2-7.1-10.6c0-11.1,0.6-19.2,1.1-27.1c0.5-7.1,0.9-13.8,0.9-21.9c1.9-4,4-7.6,6.3-11.4c2.4-4,4.9-8.1,7-12.8
		c3.5-7.9,4-15.9,4.5-23.7c0.2-2.7,0.3-5.4,0.6-8.2c1.4-12.7,3.2-48.1,2.1-60.7l-0.2-2l-1.7-1c-1.1-0.7-4.2-1.8-12.3-1.8
		c-1.2,0-2.4,0-4.1,0.1c-1,0-3.5-0.1-6.5-0.1c-4.9-0.1-11.3-0.3-15.6-0.3C309.5,221.2,305.9,221.2,305.7,225.2z M313.9,275.3
		l0.2-0.1c0.2,0.7,0,1.2-0.2,1.5C313.9,276.3,313.9,275.8,313.9,275.3z M337.5,415.1c0.7,0.9,1.4,1.8,2.1,2.7
		c0.5,0.5,0.9,1.1,1.3,1.7c-1.6,0-3.4-0.2-4.8-0.4c-1-0.1-1.8-0.2-2.4-0.2l-2.2-0.1c-2.6-0.2-5.2-0.3-7.8-0.3c-0.7,0-1.4,0-2.1,0
		c-0.3,0-1,0.1-2,0.2c-2.2,0.2-5.9,0.6-8.9,0.6h0c-0.1,0-0.2,0-0.3,0c0.6-0.9,1.4-1.9,2.3-2.8c2.4-2.6,4.6-5.1,6.7-7.5
		c2.8-3.2,5.4-6.2,8.4-9.3c1.6,2.3,3,4.7,4.5,7.2C333.8,409.5,335.5,412.3,337.5,415.1z M343.9,294.8c-0.5,7.4-0.9,14.4-3.8,20.9
		c-1.9,4.3-4.2,8-6.5,12c-1.3,2.2-2.6,4.4-3.9,6.8c-3.9-5.8-7.2-11.7-11.1-19.5c-2.2-4.5-3.8-8.3-4.5-12.3
		c-0.6-3.5-0.4-7.4-0.3-11.1c0.2-3.9,0.2-9,0.2-14.6c0.1-0.1,0.6-0.4,1.3-0.6c2.3-0.7,5.1-1.4,6.8-0.5c0.7,0.4,1.4,1.1,2.2,1.9
		c1.7,1.7,3.8,3.7,7.1,4.1c0.3,0,0.6,0.1,1,0.1c2.6,0,5.2-1.2,7.7-3.5c0.5-0.4,0.9-0.9,1.3-1.3c0.9-0.9,1.7-1.7,2.5-2.2
		c0.5-0.3,1.1-0.4,1.8-0.6c-0.3,4.9-0.7,9.1-1,12C344.2,289.1,344,292,343.9,294.8z M313.4,229c0.2,0,0.5,0,0.7,0
		c4.2,0,10.5,0.2,15.4,0.3c3.1,0.1,5.6,0.1,6.7,0.1l0.5,0c5.1-0.2,8.3,0.1,10,0.3c0.4,8.5-0.1,23.5-0.8,36.5c-1.9,0.2-4,0.6-6,1.7
		c-1.8,1-3.1,2.3-4.3,3.5c-0.4,0.4-0.7,0.7-1.1,1.1c-1.2,1.1-2,1.4-2.4,1.4c-0.6-0.1-1.6-1-2.5-1.9c-1.1-1.1-2.3-2.3-3.9-3.1
		c-3.9-2.2-8.4-1.5-12-0.4c0-3.3-0.1-6.8-0.2-10.2C313.5,247.7,313.3,236.8,313.4,229z"/>
</g>
</svg>
