<?xml version="1.0" encoding="utf-8"?>
<!-- Generator: Adobe Illustrator 18.0.0, SVG Export Plug-In . SVG Version: 6.00 Build 0)  -->
<!DOCTYPE svg PUBLIC "-//W3C//DTD SVG 1.1//EN" "http://www.w3.org/Graphics/SVG/1.1/DTD/svg11.dtd">
<svg version="1.1" id="Layer_1" xmlns="http://www.w3.org/2000/svg" xmlns:xlink="http://www.w3.org/1999/xlink" x="0px" y="0px"
	 width="512px" height="512px" viewBox="0 0 512 512" enable-background="new 0 0 512 512" xml:space="preserve">
<g>
	<path fill="white" d="M248,340.8C248,340.8,248,340.8,248,340.8c5.8,0,11.5-0.6,17-1.8c15.2-3.2,28.1-11,37.3-22.5
		c12.9-16.1,16.8-37.3,10.5-58.2c-4.7-15.9-14.4-28.2-27.1-34.6c-10.7-5.4-24.2-8.4-37.9-8.4c-25.9,0-47,10.3-56.5,27.6
		c-10.5,18.9-13.2,39.6-7.6,56.6C192.1,324.6,217.3,340.8,248,340.8z M198.2,246.7c8.1-14.7,26.7-23.5,49.6-23.5
		c12.5,0,24.7,2.7,34.4,7.6c10.8,5.4,19,16,23.1,29.8c5.5,18.4,2.2,37-9.1,51c-8.1,10.1-19.5,16.9-32.8,19.8
		c-5,1.1-10.1,1.6-15.3,1.6c0,0,0,0,0,0c-20.7,0-48-9.4-56.8-36C186.2,282.1,188.8,263.7,198.2,246.7z"/>
	<path fill="white" d="M171.7,366.6c20.9,16.7,48,25.9,76.4,25.9c29.4,0,57.3-9.8,78.7-27.5c24.4-20.2,40.3-52.3,42.5-85.7
		c0.7-10.7,0-21.1-2.1-31.1c-12.1-56.6-70.7-87.2-119.7-87.2c-12.1,0-23.8,1.7-34.8,5.1c-39.2,12.2-68.8,47.5-77.2,92.2
		C127.3,301.4,140.9,341.8,171.7,366.6z M143.2,259.8c7.9-41.8,35.4-74.8,71.8-86.1c10.2-3.2,21.2-4.8,32.5-4.8
		c45.9,0,100.8,28.4,112,81c2,9.2,2.6,19,1.9,28.9c-2.1,31.3-17,61.3-39.7,80.2c-19.9,16.5-46.1,25.6-73.6,25.6
		c-26.6,0-52-8.6-71.5-24.2C148.1,337.5,135.6,299.9,143.2,259.8z"/>
	<path fill="white" d="M86.5,238.8c0.3,1.7,0.5,3.3,0.8,5c1.8,10.3,2.7,20.8,2.7,31.3c0,18-1.9,66.9-2.9,86.5
		c-0.2,3.1-0.3,6.7,0.4,10.2c2,9.1,7.6,10.1,9.9,10.1c6,0,12.2-6.2,13.8-13.8c1.5-6.9,1.2-14.2,0.9-21.2c-0.1-1.7-0.1-3.3-0.2-4.9
		c-0.1-5.5-0.4-12.1-0.7-19.6c-1.3-30.2-3-71.7,2.3-92.7c1.2-4.7,3-9.1,4.9-13.8c2.1-5.1,4.3-10.5,5.6-16.1c1-4.2,1.5-8.6,1.6-13.1
		c0.1-6.5-0.8-13-2.6-19.2c-2.3-7.8-9.2-25.8-23.1-25.8c-1.4,0-2.9,0.2-4.4,0.6c-1.6,0.5-3.2,1-4.6,1.7c-9.3,4.3-15.7,13.3-19,26.6
		c-4.3,17.3-1.6,32.6,8.4,48C84.3,224.6,85.3,231.5,86.5,238.8z M79.6,172.4c2.7-10.9,7.6-18.1,14.7-21.3c1.1-0.5,2.2-0.9,3.5-1.3
		c0.8-0.2,1.5-0.3,2.2-0.3c7,0,12.8,10.9,15.5,20.2c1.6,5.4,2.4,11.1,2.3,16.9c-0.1,3.9-0.5,7.7-1.4,11.4c-1.2,5-3.1,9.8-5.2,14.9
		c-1.9,4.7-3.9,9.6-5.2,14.8c-5.6,22.2-3.9,64.3-2.6,95c0.3,7.4,0.6,14,0.7,19.4c0,1.7,0.1,3.4,0.2,5.1c0.3,6.5,0.5,13.2-0.8,19.2
		c-0.9,4.3-4.4,7.6-6.2,7.6c-0.8,0-1.7-1.6-2.2-3.9c-0.5-2.5-0.4-5.3-0.3-8.1c0.8-17.1,2.9-67.3,2.9-86.8c0-10.9-0.9-21.9-2.8-32.6
		c-0.3-1.6-0.5-3.3-0.8-4.9c-1.2-7.8-2.4-15.9-7.3-23.3C78.1,200.6,75.8,187.7,79.6,172.4z"/>
	<path fill="white" d="M389.7,231.2c0.9,3.4,1.8,6.8,2.7,10.3c2.9,10.6,5.9,21.6,6.6,32.4c0.9,13.1,0.2,27-0.5,40.5
		c-0.2,3.2-0.3,6.4-0.5,9.6c-0.2,4.7-0.5,9-0.8,13.1c-0.7,9.6-1.3,18.7-0.5,30.2c0.2,2.9,0.5,6,1.8,8.8c3.1,6.9,8,7.9,10.7,7.9
		c7,0,12.9-6.4,14.4-12.2c2.3-8.8,1.7-18.5,1.2-27.9c-0.2-2.8-0.3-5.6-0.4-8.2l-1.2-43.2c-0.5-15.7-1-31.9,2.7-47
		c1.3-5.4,3.4-10.2,5.5-15.3c1.5-3.4,3-7,4.3-10.8c7.7-22.6,6.7-52.2,5.9-63.9c-0.2-3.4-0.5-8-3-11.6c-1.7-2.4-4.4-3.9-7.2-3.9
		c-2.9,0-5.3,1.5-6.6,4.1c-1.1,2.2-1.1,4.5-1.1,6.1l-0.9,36.1c0,0.7-0.2,1.3-0.4,1.6c-0.2-0.4-0.4-1-0.3-1.8
		c1.5-10.7,0.3-26.5-2.7-36.8c-1.3-4.6-3.9-10.1-8.6-10.1c-1.1,0-2.8,0.3-4.4,2c-2.3,2.4-2.5,5.6-2.6,8.5l-0.9,29.9
		c0,1.9-0.1,4.4-0.9,5.8c-0.1,0.1-0.2,0.3-0.4,0.4c0-0.4,0-0.7-0.1-0.9l-1.3-29.6c-0.1-3-0.3-7-2.3-10.4c-1.6-2.6-4.3-4.3-7.2-4.3
		c-2.2,0-4.3,1-5.6,2.9c-1.7,2.3-1.8,5-1.9,7.5l-0.5,44.1c-0.1,9.9,2.4,18.8,4.8,27.4C388.1,225.5,388.9,228.3,389.7,231.2z
		 M390.9,151.4c0-0.4,0-1.3,0.1-2c0.9,1.6,1,4.3,1.1,6.5l1.3,29.6c0.1,1.8,0.2,4.5,1.9,6.6c1.2,1.5,2.9,2.3,4.9,2.3
		c3.2,0,6.8-2.1,8.4-4.9c1.8-3.1,1.9-6.8,2-9.5l0.8-29.1c0.1,0.2,0.2,0.5,0.2,0.8c2.7,9.2,3.7,23.9,2.4,33.5c-0.4,3,0.4,6,2.2,8.1
		c1.4,1.7,3.3,2.7,5.5,2.8l0.5,0c2,0,3.9-0.8,5.4-2.3c1.8-1.9,2.9-4.5,2.9-7.3l0.9-36.1c0-0.7,0-1.7,0.1-2.3
		c0.1,0.1,0.3,0.2,0.4,0.4c1.2,1.8,1.5,5.1,1.6,7.6c0.8,11.2,1.7,39.6-5.5,60.9c-1.2,3.5-2.6,6.7-4,10.2c-2.2,5.1-4.5,10.5-5.9,16.5
		c-3.9,16.2-3.4,33-2.9,49.2l1.2,43.2c0.1,2.7,0.2,5.6,0.4,8.5c0.5,8.8,1.1,17.8-0.9,25.5c-0.8,3.2-4.2,6.3-6.8,6.3
		c-1.4,0-2.5-1.1-3.5-3.2c-0.7-1.6-0.9-3.9-1.1-6.2c-0.8-10.9-0.2-19.4,0.5-29.1c0.3-4.1,0.6-8.5,0.8-13.3c0.1-3.2,0.3-6.4,0.5-9.6
		c0.7-13.7,1.5-27.9,0.5-41.5c-0.8-11.6-3.9-23-6.9-33.9c-0.9-3.4-1.8-6.8-2.7-10.1c-0.7-3-1.6-5.9-2.4-8.8
		c-2.4-8.4-4.6-16.4-4.5-25.1L390.9,151.4z"/>
</g>
</svg>
