<?xml version="1.0" encoding="utf-8"?>
<!-- Generator: Adobe Illustrator 18.0.0, SVG Export Plug-In . SVG Version: 6.00 Build 0)  -->
<!DOCTYPE svg PUBLIC "-//W3C//DTD SVG 1.1//EN" "http://www.w3.org/Graphics/SVG/1.1/DTD/svg11.dtd">
<svg version="1.1" id="Layer_1" xmlns="http://www.w3.org/2000/svg" xmlns:xlink="http://www.w3.org/1999/xlink" x="0px" y="0px"
	 width="512px" height="512px" viewBox="0 0 512 512" enable-background="new 0 0 512 512" xml:space="preserve">
<g>
	<path fill="white" d="M263.3,197.7L263.3,197.7l1,3c0.4,1.1,0.8,2.2,1.2,3.3c0.7,2,1.4,3.9,2.1,5.9c0.6,1.6,1.2,3.2,1.8,4.7
		c0.7,1.8,1.3,3.5,2,5.2c0.6,1.6,1.2,3.2,1.9,4.8c0.7,1.7,1.4,3.4,2.1,5c0.6,1.4,1.2,2.8,1.8,4.2c1.3,3,2.6,5.9,3.8,8.6
		c0,0,0,0.1,0,0.1c3.9,8.4,8.6,17.6,16,23.9c0,0,0.1,0,0.1,0.1c1.1,1,2.3,1.9,3.6,2.7c1.3,0.9,2.7,1.7,4.2,2.4
		c4.4,2,9.4,3.1,14.8,3.1c0,0,0,0,0,0c6,0,12-1.2,17.9-2.9l16.3,50.5c1.2,3.8,1.4,7.5,0.3,11c-1.5,5-6.6,9-11.5,13
		c-0.8,0.6-1.6,1.3-2.4,1.9c-2.5,2-3.2,5.5-1.8,8.3c1.2,2.3,3.5,3.7,6.1,3.7c0.6,0,1.2-0.1,1.8-0.2c18.2-4.8,38.7-12.6,52.7-18.3
		c2.2-0.9,5.6-2.4,9-4.1c2.8-1.5,4.3-4.7,3.5-7.8c-0.8-3.1-3.6-5.2-6.8-5.1c-8.5,0.3-15.2-0.8-19.4-3c-7.3-3.8-11.2-15.5-14.4-25
		c-0.6-1.8-1.2-3.6-1.8-5.2l-9.9-27.5c8.8-3.9,17-8.9,22.4-15.9c0.3-0.4,0.5-0.7,0.8-1.1c0.3-0.5,0.7-1,1-1.5
		c0.5-0.9,1.1-1.8,1.5-2.7c0,0,0,0,0,0c0.9-1.8,1.6-3.8,2.1-5.8c0-0.1,0.1-0.2,0.1-0.3v0c0,0,0,0,0,0c0.1-0.3,0.1-0.7,0.2-1
		c1.4-7,0.3-13.8-1.2-21.3c-0.6-3.1-1.4-6.3-2.1-9.4l-0.7-3.2l-0.1,0c-4.5-18.1-10.3-35-16.3-52.6c-2-5.8-4-11.7-6-17.7l-1.4-4.1
		l-4,1.8c-17.1,7.6-97.6,34.7-98.4,35l-3.5,1.2l1,3.6C257.1,178.7,260.1,188.3,263.3,197.7z M378.2,215.9c0.5,2.4,0.9,4.7,1.3,7
		c0.6,4.2,0.7,8.2-0.2,11.9c0,0.1-0.1,0.2-0.1,0.3c-0.2,0.7-0.4,1.5-0.7,2.2c0,0.1-0.1,0.2-0.1,0.2c-0.3,0.7-0.6,1.4-0.9,2.1
		c-0.1,0.2-0.3,0.5-0.4,0.7c-0.3,0.5-0.6,1-0.9,1.5c-6.1,9.3-19,14.9-31.3,19.2c-1.4,0.5-2.9,1-4.3,1.5c-7,2.3-14.3,4.3-21.1,4.3
		c-4.3,0-8.1-0.8-11.5-2.4c-9.8-4.5-15.5-15.4-20-25.3c-1.2-2.6-2.4-5.2-3.5-8c-0.6-1.3-1.1-2.7-1.7-4.1c-0.6-1.4-1.2-2.8-1.8-4.3
		c-0.6-1.5-1.2-3.1-1.9-4.7c-0.6-1.4-1.1-2.9-1.7-4.4c-0.6-1.5-1.2-3.1-1.7-4.6c-0.6-1.7-1.2-3.3-1.8-5c-0.3-0.9-0.6-1.8-0.9-2.6
		c2.2-0.7,4.7-1,7.1-0.8c4.9,0.5,9.6,2.6,14.5,4.7c1.3,0.6,2.7,1.2,4,1.7c4,1.7,10,4,16.3,4c2.3,0,4.5-0.3,6.6-0.9
		c4.8-1.4,8.8-4.3,12.7-7c4.8-3.4,9.2-6.6,13.8-5.8c2.9,0.4,5.6,2.5,8.5,4.6c1.5,1.1,3,2.2,4.7,3.3c4.6,2.8,9.9,4.3,15.6,4.6
		C377.2,211.8,377.7,213.8,378.2,215.9z M361.5,294.1c0.6,1.6,1.1,3.3,1.7,5c3.6,10.8,8.1,24.2,18.3,29.4c4.6,2.4,10.8,3.7,18.5,3.9
		c-1.6,0.7-3,1.3-4.1,1.8c-12.5,5.1-30.3,11.9-46.7,16.7c5.1-4.1,10.5-8.9,12.4-15.5c1.5-5,1.4-10.4-0.4-15.7l-16.3-50.4
		c0.9-0.3,1.7-0.6,2.6-0.9c1.4-0.5,2.8-1,4.2-1.5L361.5,294.1z M354.5,138c1.6,4.6,3.1,9.2,4.7,13.7c5.8,16.8,11.3,32.9,15.6,49.9
		c-3.5-0.4-6.8-1.5-9.7-3.2c-1.4-0.9-2.8-1.9-4.1-2.9c-3.4-2.5-7.2-5.3-12-6.1c-7.7-1.2-13.8,3.1-19.6,7.2
		c-3.5,2.5-6.8,4.9-10.3,5.9c-5.6,1.6-13.1-0.9-17.6-2.8c-1.3-0.5-2.6-1.1-3.9-1.7c-5.3-2.3-10.8-4.7-16.9-5.4
		c-3.5-0.4-7.2,0.1-10.4,1.2c-2.6-7.7-5.1-15.6-7.4-23.6C277.9,165.3,334.2,146.2,354.5,138z"/>
	<path fill="white" d="M104.4,382c17.1,8,37.8,15.1,52.2,19.7c2.3,0.7,5.8,1.8,9.5,2.6c0.5,0.1,1,0.2,1.5,0.2c2.6,0,5-1.5,6.1-3.9
		c1.4-2.9,0.6-6.3-1.9-8.2c-6.7-5.2-11.1-10.3-13-14.7c-3.2-7.6,1.3-19.1,4.9-28.4c0.7-1.8,1.4-3.5,2-5.1l10-27.4
		c6.1,1.8,12.5,3,18.7,3c7.9,0,14.7-2.1,20.2-6.2c1.5-1.1,2.9-2.4,4.1-3.7c0,0,0,0,0,0c4.1-4.4,6.9-9.6,9.3-14.1
		c2.7-5.1,5.2-10.2,7.6-15.2c0.1-0.3,0.3-0.6,0.4-0.9c1-2.1,2-4.2,2.9-6.4c0.3-0.6,0.5-1.3,0.8-1.9c0.8-1.9,1.6-3.7,2.4-5.6
		c0.3-0.7,0.6-1.4,0.9-2c0.8-1.9,1.6-3.9,2.4-5.8c0.2-0.5,0.4-1,0.6-1.5c2-5.1,4-10.1,5.9-15.1l1.9-4.9l0,0c0.4-1,0.8-2,1.2-3
		c2.2-5.8,4.4-11.6,6.7-17.5l1.6-4l-4.2-1.2c-18-5.1-97.2-35.9-98-36.2l-3.5-1.4l-1.5,3.4c-8.8,19.8-16.6,40.1-22.4,58.6l0,0
		l-1.2,4.2c-0.1,0.3-0.1,0.5-0.2,0.8c-0.7,2.4-1.4,4.7-2,7c-0.3,1-0.6,1.9-0.8,2.9c-2.1,7.9-3.9,16.1-3.5,24
		c0.2,4.7,1.2,9.3,3.2,13.7c0.7,1.5,1.6,3,2.5,4.3c5.3,7.7,13.5,12.7,22.5,16.7l-19.8,49.2c-1.4,3.7-3.8,6.7-6.8,8.6
		c-4.4,2.9-10.8,2.7-17.1,2.6c-1,0-2.1,0-3.1-0.1c-3.1,0-6,2.1-6.7,5.3C99.9,377.4,101.5,380.6,104.4,382z M137.1,252
		c0.5-2,1.1-4,1.7-6c0.8,0.4,1.6,0.8,2.4,1.3c5.2,2.8,10.7,5.6,17.1,5.6l0.7,0c5.9-0.2,11-3,16-5.6c5-2.7,9.6-5.3,14.3-4.3
		c2.9,0.6,5.6,2.5,8.5,4.5c3,2.1,6.1,4.3,9.9,5.5c1.9,0.5,3.8,0.8,5.8,0.8c6.6,0,12.8-2.9,18.7-5.7c1.2-0.6,2.4-1.1,3.5-1.6
		c2.2-1,4.4-1.7,6.6-2.1c-0.2,0.4-0.3,0.9-0.5,1.3c-1.2,3-2.4,6-3.6,9.1c-0.4,1.1-0.9,2.1-1.3,3.2c-1.1,2.7-2.2,5.3-3.4,8
		c-0.4,0.9-0.8,1.9-1.2,2.8c-1.4,3.2-2.9,6.4-4.4,9.7c-0.6,1.2-1.1,2.3-1.7,3.5c-1.4,2.8-2.8,5.6-4.2,8.3c-0.3,0.6-0.6,1.2-0.9,1.8
		c-3.3,6.2-6.5,11.7-11.2,15.2c-4.2,3.1-9.2,4.6-15.5,4.6c-9.1,0-19.1-3.3-27.7-6.5c-12-4.5-24.1-9.8-29.6-19.5
		c-0.3-0.5-0.6-1-0.9-1.5c-1.3-2.7-2-5.6-2.3-8.5C133.1,267.9,135,259.5,137.1,252z M161.9,183.2c14.7,5.7,70.2,27,91.1,33.8
		c-1.8,4.6-3.5,9.1-5.2,13.6c-0.7,1.8-1.4,3.6-2.1,5.4c-4.2,0.2-8.7,1.2-13,3.1c-1.2,0.5-2.5,1.1-3.7,1.7c-5.2,2.4-10.5,5-15.4,5
		c-1.3,0-2.4-0.2-3.6-0.5c-2.6-0.8-5-2.5-7.6-4.3c-3.4-2.5-7-5-11.6-5.9c-1.1-0.2-2.3-0.3-3.4-0.3c-5.9,0-11.1,2.8-16.1,5.5
		c-4.3,2.3-8.4,4.5-12.5,4.7l-0.4,0c-4.4,0-8.8-2.3-13.4-4.7c-1.2-0.6-2.5-1.3-3.8-1.9C146.5,220.9,153.7,201.9,161.9,183.2z
		 M131.9,373.1c4.3-2.9,7.7-7.1,9.7-12.3l19.8-49.1c0.8,0.3,1.7,0.7,2.5,1c1.4,0.5,2.8,1,4.2,1.5l-9.9,27.1c-0.6,1.6-1.2,3.2-1.9,5
		c-4.1,10.6-9.3,23.8-4.8,34.3c2,4.8,5.9,9.7,11.7,14.8c-1.6-0.5-3.1-0.9-4.3-1.3c-12.9-4.1-30.9-10.2-46.6-17.2
		C119,377.1,126.2,376.9,131.9,373.1z"/>
	
		<rect x="252.7" y="269.5" transform="matrix(0.9912 0.1323 -0.1323 0.9912 39.3264 -31.4978)" fill="white" width="7.9" height="21.2"/>
	<path fill="white" d="M270.5,267.7c10,16.1,19.3,32.8,27.6,49.9l7.1-3.5c-8.4-17.2-17.9-34.3-28-50.5L270.5,267.7z"/>
	
		<rect x="196.8" y="165.8" transform="matrix(0.713 0.7012 -0.7012 0.713 178.6159 -96.8773)" fill="white" width="21.7" height="7.9"/>
	<path fill="white" d="M235.2,181.9l7.7-1.7c-0.7-3.2-1.5-6.3-2.2-9.4c-2.3-9.7-4.4-18.8-6.3-29.9l-7.8,1.3
		c1.9,11.3,4.2,21,6.4,30.4C233.8,175.6,234.5,178.7,235.2,181.9z"/>
</g>
</svg>
