<?xml version="1.0" encoding="utf-8"?>
<!-- Generator: Adobe Illustrator 18.0.0, SVG Export Plug-In . SVG Version: 6.00 Build 0)  -->
<!DOCTYPE svg PUBLIC "-//W3C//DTD SVG 1.1//EN" "http://www.w3.org/Graphics/SVG/1.1/DTD/svg11.dtd">
<svg version="1.1" id="Layer_1" xmlns="http://www.w3.org/2000/svg" xmlns:xlink="http://www.w3.org/1999/xlink" x="0px" y="0px"
	 width="512px" height="512px" viewBox="0 0 512 512" enable-background="new 0 0 512 512" xml:space="preserve">
<g>
	<path fill="white" d="M260.9,246c-1.4,5.4-2.5,10.9-3.4,16.5c-0.3,1.8-0.6,3.6-0.8,5.5c-0.5,3.1-0.9,6.2-1.5,9.2l-23.9,10.4
		c-3.7,1.6-8,3.5-11.4,6.8c-3.3,3.2-5.1,7.3-5.2,11.3c0,3.4,1.3,6.6,3.9,9.1c2.7,2.7,6.5,4.2,10.6,4.2c0.2,0,0.4,0,0.6,0
		c8-0.3,14.1-5.7,18-9.7c3.8-4,6.7-7.8,8.9-11.7c2.6-4.7,4.2-9.6,5.4-14.6l15.7-6.8c-1.2,3.7-2.2,7.5-3.1,11.3
		c-0.1,0.6-0.3,1.3-0.6,2.1c-1.2,4.2-3.1,10.6,1,14.8c1.9,2,4.4,3,7.1,2.9c7.1-0.3,14-8,16-10.4c-0.1,0.5-0.3,0.9-0.4,1.4l-0.9,3.5
		l6.5,2.8l1.8-2.9c4.6-7.3,11.5-15,18.9-21.4c-0.3,0.6-0.5,1.1-0.7,1.7c-0.5,1.5-0.3,3.1,0.6,4.4c0.9,1.3,2.3,2.1,3.9,2.1
		c2.2,0,4,0.2,5.5,0.7c-0.2,0.2-0.3,0.3-0.5,0.5c-3.1,2.8-6.6,6-8.4,10.5l-2.4,6.1l6.5-0.8c3.2-0.4,7-1.1,10.2-3.4
		c4-2.8,6.1-7.3,5.3-11.6c0,0,0-0.1,0-0.1c1.4-1.1,2.7-2.1,4.1-3.2c3.3-2.5,6.6-5.1,10-8.2l-5,17.3c-0.4,1.3-1.6,5.5,1.4,8.3
		c1.9,1.8,4.5,2.3,7.8,1.3c5.6-1.6,11-4.4,15.5-8.2l-5.1-6c-3.5,2.9-7.6,5.2-11.9,6.5l9.4-32.3c1.8-0.1,3.6-0.2,5.4-0.4
		c3.3-0.2,6.5-0.4,9.5-0.6l-0.4-7.9c-2.7,0.2-5.7,0.3-8.6,0.5c3.6-5.6,6.4-11.6,7.8-18.1l0.1-0.8c0-3.6-2.3-5.3-4.3-5.6
		c-3.6-0.6-7.6,2.5-9.3,7.3c-0.3,0.8-0.7,1.6-1.1,2.4c-0.6,1.2-1.3,2.7-1.7,4.2l-3.3,11.4c-4.1,0.2-8.2,0.4-12,0.4v7.9
		c2.3,0,4.6-0.1,7-0.2c-0.7,0.8-1.4,1.6-2.1,2.4c-4.4,4.8-9,8.3-13.8,12.1c-1.2,0.9-2.4,1.8-3.6,2.8c-1.1-0.8-2.3-1.5-3.6-2
		c-1.2-0.4-2.4-0.7-3.6-0.9c1.6-2.8,4-6.3,6.6-9.5c1.5-1.8,1.4-4.4-0.1-6.2c-1.5-1.8-4-2.2-6.1-1.1c-7.1,4.1-14.8,10.3-21.6,17.1
		c1.6-4.9,3-9.5,4-13.2c0.6-2-0.4-4.1-2.3-5c-1.8-0.9-4.1-0.3-5.3,1.4c-2.3,3.2-5.2,8.7-8,14c-2.8,5.2-5.7,10.7-7.5,12.9
		c-2.9,3.7-8,7.9-10.7,8c-0.5,0-0.8-0.1-1-0.4c-0.9-1,0.3-5.4,0.9-7.2c0.3-0.9,0.5-1.7,0.7-2.5c1.2-5.1,2.7-10.2,4.4-15.3
		c0.7-2.1,0.1-4.5-1.5-6c-1.6-1.5-4-1.9-6.1-1l-15.3,6.7c0.2-1.4,0.4-2.9,0.7-4.3c0.3-1.8,0.5-3.6,0.8-5.4c2-12.1,5.1-24,9.3-35.5
		c1.4-3,3.1-6.1,6-9.8c0.2-0.2,0.4-0.5,0.6-0.7l-6.1-5c-0.2,0.2-0.4,0.5-0.6,0.7c-4.6,5.6-5.4,6.9-7.1,11.5c0,0.1,0,0.1-0.1,0.2
		c-0.3,0.7-0.6,1.4-0.9,2c-1.8,3.8-3,6.6-5.9,9.1c-6.7,5.8-14.7,10.3-22.4,14.7l3.9,6.9C248.3,254.2,254.9,250.5,260.9,246z
		 M249.8,293.6c-1.8,3.3-4.3,6.6-7.6,10.1c-4.7,4.9-8.6,7.2-12.6,7.3c-2,0-4.1-0.6-5.4-1.9c-1-1-1.5-2.1-1.5-3.4
		c0-1.8,1.1-4,2.8-5.7c2.4-2.3,5.8-3.8,9.1-5.2l18.3-8C251.9,289.1,251,291.4,249.8,293.6z"/>
	<path fill="white" d="M403.6,297.8c-0.5-5.2-4.2-11-10.3-11.6l-3-0.3l-1.1,2.8c-6.3,15.6-10.9,31.9-13.8,48.5l-1.9,0
		c-6.6,0-13.2,3-18,8.1c-2.5,2.7-4.4,5.8-5.6,9c-3.4,2.7-6.7,5.5-9.4,7.8c-3.8,3.3-6.3,4.5-7.9,3.7c-1.7-0.9-2.6-2-2.3-5.3
		c0-0.4,0.1-0.9,0.1-1.3c5.8-5,10.3-10.3,13.4-15.9c2-3.5,1-7.9-2.3-10.4c-3.3-2.5-7.6-2.3-10.2,0.4l-0.3,0.3
		c-3.2,3.3-4.8,7.5-5.8,11.2c-1,3.4-1.7,6.9-2.2,10.4c-3.4,2.7-7.2,5.3-11.4,7.8c1.1-5.4,3.4-14,7.5-22.3l-6.8-3.9l-12.1,18.8
		c-2.1,2.4-4.4,4.1-6.8,5.2c-0.8,0.4-1.5,0.6-2.2,0.8c2.7-6.2,5.5-12.3,8.5-18.3l3.6-7.5l-13.6,3.2c0-0.1,0-0.1,0-0.2
		c-0.2-2.4-1.6-5-3.4-6.6c-1.4-1.2-3.1-1.7-4.8-1.5c-3.6,0.4-6.6,4.2-7.4,5.6c-1.4,2.4-1.7,5.6-0.7,8.1c0.7,1.8,1.9,3.2,3.5,4
		c-2.5,3.7-5.3,7.3-8.4,10.6c-0.7,0.8-1.5,1.5-2.4,2.1c-1.7,1.3-3.6,2.5-5.4,3.2c2.6-6,5.4-12,8.2-17.8l3.6-7.5l-13.6,3.2
		c0-0.1,0-0.1,0-0.2c-0.2-2.4-1.5-5-3.4-6.6c-1.4-1.2-3.1-1.7-4.8-1.5c-3.6,0.4-6.6,4.2-7.4,5.6c-1.4,2.4-1.7,5.6-0.7,8.1
		c0.7,1.8,1.9,3.2,3.5,4c-3.3,4.8-7,9.3-11.1,13.4c-2.2,2.2-3.9,3.2-5.1,3c-1-0.2-2.1-1.7-2.3-3.2c-0.4-2.2,0.2-4.7,0.8-7.1
		l5.2-21.4l-3.6-0.9l0-3.9c-14.6-0.8-29.5,6.5-40,17.8c3.3-13,7.4-25.6,11.5-37.7c2.2-6.5,8-23.9-9.9-30.3c-2.7-1-5.7-1.3-9-1
		l-1.4,0.1c-2,0.2-2.7,0.2-4.2,1.2l-0.5,0.3c-4,2.3-7.3,5.4-9.7,9.1c-0.3-1.2-0.6-2.3-0.9-3.6c-2.2-7.3-6.5-10.8-12.7-10.3
		c-3.3,0.2-6.5,1.7-9,4.2c-1.3,1.3-2.6,2.7-3.8,4.1c0.3-2.7,0.5-5.4,0.5-8.1l0.1-5.1l-4.9,1.2c-15.5,3.7-21.9,13.4-30,25.6l-0.6,0.9
		l6.6,4.3l0.6-0.9c6.5-9.9,11.1-16.9,20.1-20.6c-1,10.9-4.3,21.7-7.6,32.1L107,374.7l7.5,2.3l17.8-57.3c1.6-5.2,3.1-10.1,5.3-14.8
		c3.1-6.7,7.2-12.7,12.4-17.9c1.2-1.1,2.6-1.8,4-1.9c1.7-0.1,3.2,0.1,4.6,4.7c2,6.5,2.1,12,1.1,18.2c-8.2,22-13.6,45-18.8,67.4
		c0,0.1,0,0.2-0.1,0.3l7.7,1.8c0,0,0,0,0,0c4.7-20,6.7-26.3,9.3-34.2c0.9-2.6,1.8-5.5,2.9-9l1.3-4.2c2.4-7.7,4.4-14.1,5.4-20
		c1.5-4.1,3.2-8.1,4.9-12.1c1.7-3.8,4.6-6.9,8.4-9.1l0.6-0.4c0.2,0,0.5,0,0.9-0.1l1.5-0.1c2.1-0.2,4,0,5.6,0.6
		c7.8,2.8,9.2,8.1,5.1,20.4c-7,21-14.1,43.4-17.4,66.8l7.8,1.1c1.8-11.7,9.8-22.8,20-29.8c-3.2,4.7-5.4,10.2-6.3,16.2
		c-0.2,1.3-0.8,4.9,1.4,7.8c2.9,4,8.5,4,12.5,2.4c3-1.2,5.6-3.4,8.1-6.6c0.9,3.8,3.7,7.9,8.3,8.8c5.3,1.1,9.5-2.4,12.2-5.1
		c5.9-5.9,11.1-12.5,15.3-19.7l2.3-0.6c-2.5,5.3-4.9,10.8-7.2,16.2l-1.5,3.6l3.5,1.6c7.2,3.2,14.2-2,17.6-4.4c1.3-0.9,2.5-2,3.5-3.2
		c4.7-5.1,8.8-10.6,12.3-16.6l2.3-0.6c-2.5,5.4-4.9,10.8-7.2,16.2l-1.5,3.6l3.5,1.6c3.8,1.7,8.1,1.5,12.8-0.6
		c2.4-1.1,4.7-2.5,6.8-4.5c0,0.1,0,0.3-0.1,0.4c-0.5,2.6,0.6,5.2,2.8,6.8c2.2,1.5,5,1.7,7.3,0.4c3.3-1.9,6.4-3.8,9.3-5.8
		c0.6,2.7,2.3,5.7,6.3,7.7c7.1,3.6,14.1-2.5,16.7-4.8c0.9-0.8,1.9-1.7,3-2.5c0.2,1.5,0.8,3.1,2,4.5c1.6,1.8,4,2.9,6.7,2.9
		c0.1,0,0.2,0,0.2,0c7.2,0,11.8-6.6,13.8-9.4c1.5-2.2,3-4.4,4.5-6.6c0.5,1.1,1,2.1,1.8,3.1c5.8,8,16.2,8.5,25.7,7.9l-0.5-7.9
		c-7.3,0.5-15.2,0.3-18.8-4.6c-1.6-2.3-2-5.2-1.9-8.5c7-11.7,13.2-23.8,18.6-36.3C402.4,306.7,404,302.5,403.6,297.8z M336.5,339.1
		c0.1,0,0.4,0.2,0.4,0.4c-1,1.8-2.1,3.5-3.5,5.2C334.2,342.6,335.2,340.6,336.5,339.1z M215.9,359.3c-2.2,3.8-4.5,6.2-6.8,7.2
		c-1.3,0.6-2.8,0.5-3.1,0.2c0-0.1-0.2-0.5,0.1-1.9c1.6-9.8,7.5-18.4,15.5-22.3c0.4-0.2,1.3-0.6,2.5-1
		C222,347.7,219.2,353.7,215.9,359.3z M250.9,344.3l-0.7,0.2c0-0.3,0.1-0.6,0.2-0.8c0.2-0.4,0.6-0.8,0.9-1.1c0,0.1,0,0.1,0,0.2
		C251.3,343.1,251.1,343.7,250.9,344.3z M281.5,340.9l-0.7,0.2c0-0.3,0.1-0.6,0.2-0.8c0.2-0.4,0.6-0.8,0.9-1.1c0,0.1,0,0.1,0,0.2
		C281.9,339.7,281.7,340.3,281.5,340.9z M364.9,359c-2,2.8-4.6,6.1-7.3,6.1c0,0,0,0-0.1,0c-0.5,0-0.8-0.2-0.9-0.2
		c0,0-0.2-0.3-0.3-1.6c-0.1-1.5,0-2.9,0.4-4.4c6.6-5.2,13.3-10.3,16.8-12.9C370.7,350.4,367.9,354.7,364.9,359z M393.4,307.5
		c-2.2,5.1-4.5,10.1-7,15.1c2.2-9.1,5-18,8.3-26.8c0.5,0.8,0.8,1.7,0.9,2.7C396,301.3,394.8,304.4,393.4,307.5z"/>
	<path fill="white" d="M318.5,319.1l-1.1,0.8c-3.6,2.8-4.8,8-2.7,12.1l1,2.1l2.6,0.1c2.4,0,4.5-1.5,5.7-4.1
		c1.2-2.7,1.3-5.9,0.1-8.7l-1.7-2.4H318.5z"/>
	<path fill="white" d="M160.2,261c1.4,1.6,2.8,3,3.8,4.3l3,3.6l3-3.7c6.2-7.6,8.9-11.3,13-17.5c2.4-3.6,5-9.7,5.1-14.6
		c0-3.1-1.3-6.3-3.5-8.5c-2.2-2.2-5.1-3.3-8-2.9c-2.2,0.3-4,1.5-5.2,2.3c-2.2,1.6-4.2,3.6-5.9,5.8c-0.8-1.3-1.8-2.6-3-3.7
		c-3.2-2.9-7.8-3.8-11.3-2.2c-2.9,1.3-5,4.2-5.6,7.7c-0.5,2.7-0.1,5.3,0.3,7.5C147.3,246.7,154.4,254.6,160.2,261z M153.4,233.1
		c0.2-0.9,0.7-1.7,1.2-2c0.1-0.1,0.3-0.1,0.5-0.1c0.7,0,1.6,0.4,2.2,1c1.3,1.2,2.3,3.2,3.2,5.1l5.7,11.8l3-9.2
		c1.2-3.7,3.6-6.9,6.7-9.2c0.3-0.2,1.2-0.8,1.9-0.9c0.3,0,0.7,0.2,1.1,0.6c0.7,0.7,1.2,1.9,1.2,2.9c0,3-2,7.7-3.7,10.3
		c-3.3,5-5.6,8.2-9.6,13.3c-0.3-0.3-0.6-0.7-0.9-1c-4.8-5.3-11.4-12.5-12.3-17.9C153.4,236.2,153.2,234.5,153.4,233.1z"/>
	<path fill="white" d="M205.4,260.3c1.3,1.7,2.5,3.3,3.4,4.6l2.7,3.9l3.3-3.4c6.9-7,9.7-10.4,14.5-16.3c2.7-3.4,5.8-9.2,6.3-14.1
		c0.3-3.3-0.8-6.7-3-9.2c-1.9-2.1-4.3-3.2-6.9-3.2l-0.6,0c-2.2,0.1-4.1,1.1-5.3,1.8c-2.4,1.4-4.5,3.2-6.3,5.3
		c-0.7-1.4-1.6-2.7-2.7-4c-2.9-3.1-7.5-4.5-11.1-3.2c-3,1.1-5.3,3.7-6.3,7.2c-0.7,2.6-0.6,5.2-0.4,7.5
		C193.8,245,200.2,253.5,205.4,260.3z M201.1,232c0.3-0.9,0.8-1.7,1.7-1.9c0.7,0,1.6,0.5,2.3,1.2c1.2,1.3,2,3.4,2.8,5.4l4.7,12.2
		l3.8-9c1.5-3.6,4.2-6.6,7.5-8.6c0.3-0.2,1.2-0.7,1.9-0.8c0.4,0,0.8,0.4,1,0.6c0.7,0.8,1.1,2.1,1,3.1c-0.3,3-2.6,7.5-4.6,10
		c-3.8,4.7-6.3,7.7-10.8,12.4c-0.3-0.4-0.5-0.7-0.8-1.1c-4.3-5.7-10.3-13.5-10.7-18.9C200.8,235,200.7,233.3,201.1,232z"/>
	<path fill="white" d="M394.2,161.2c-10.6-4-21.5-6-32.4-6c-7.2,0-14.2,0.9-21.1,2.4c-6.4-9.6-13.3-20.3-19.4-29.6
		c-10.4-16-20.3-31-25.5-38.4c-1.5-2.1-2.8-4.3-4.2-6.5c-5.1-8-10.3-16.3-19.4-20.3c-7.3-3.2-16.4-2.9-24.8,0.9
		c-11.3,5.1-18.8,15.3-25.4,24.3l-0.3,0.5c-6.7,9.1-13.7,18.3-20.5,27.2l-2.8,3.6c-3.8,4.9-7.6,10-11.5,15.2
		c-7.2,9.5-14.5,19.2-21.9,28.7c-23.1-2.4-44,1-64.6,10.7c-51.3,24.2-58.3,84.8-48.7,129.5c12.4,57.8,48.7,101.1,102.1,121.9
		c34,13.3,71.6,20.3,108.6,20.3c6,0,12.1-0.2,18.1-0.6c44.3-2.7,89.3-20.4,123.4-48.5c27.5-22.7,60.3-62.4,59.9-122.5
		C463.5,221.4,436.2,177.1,394.2,161.2z M193.3,139.3c3.9-5.1,7.7-10.2,11.4-15.1l2.8-3.6c6.8-8.9,13.8-18.1,20.5-27.3l0.3-0.5
		c6.3-8.6,12.9-17.5,22.3-21.8c6.4-2.9,13.1-3.2,18.4-0.9c6.9,3,11.2,9.9,15.9,17.3c1.5,2.3,2.9,4.6,4.4,6.8
		c5.1,7.3,14.9,22.3,25.3,38.2c6.8,10.4,12.8,19.5,18,27.4c-23.6,7.1-45.8,21.4-67.4,35.4c-2.1,1.4-4.3,2.8-6.4,4.1
		c-34.8-23.5-56.6-30.6-84.6-34.9C180.6,156,187,147.6,193.3,139.3z M399,390.5c-32.9,27.1-76.2,44.1-118.9,46.7
		c-41.6,2.5-84.8-4.2-123.3-19.2c-51.6-20.1-85.2-60.3-97.3-116.2c-9-41.8-2.8-98.5,44.4-120.7c15.4-7.3,31-10.8,47.6-10.8
		c2.6,0,5.2,0.1,7.9,0.3c-1.8,2.2-3.5,4.4-5.3,6.6c-1-0.2-2.1-0.3-3.1-0.3c-5.5,0-10.5,2.7-12.9,7.1c-1.9,3.4-2,7.9-0.2,11.7
		c1.7,3.6,4.7,6,8.3,6.7c0.7,0.1,1.3,0.2,2,0.2c4.9,0,9.6-3.2,11.7-7.9c1.6-3.7,1.6-8.1,0.1-12.2c2.9-3.6,5.8-7.2,8.7-10.9
		c0.3,0,0.5,0,0.7,0.1c29.9,4.2,50.5,10.7,87.1,35.6l2.1,1.5l2.2-1.4c2.9-1.8,5.7-3.7,8.6-5.5c21.8-14.1,44.3-28.6,67.7-35.1
		c4.4,6.6,8.1,12.1,11,16.2c-1.5,2.2-2.3,4.8-2.1,7.4c0.1,1.8,0.7,3.6,1.7,5.2c2,3.4,6,5.5,10.3,5.5c4.1,0,7.8-1.9,9.9-5
		c2.2-3.2,2.5-7.5,0.8-11.4c-1.7-3.9-5-6.6-8.8-7.2c-1.9-0.3-3.8-0.1-5.6,0.6c-2.5-3.6-5.6-8.1-9-13.2c5.4-1,10.9-1.6,16.4-1.6
		c10.1,0,19.8,1.8,29.6,5.5c38.9,14.7,64.3,56.1,64.6,105.4C456.4,331.1,425.2,368.9,399,390.5z M151.7,192.2
		c0.3-0.4,0.6-0.8,0.9-1.1c0,0.1-0.1,0.2-0.1,0.3c-0.9,2-3.1,3.5-5.1,3.2c-1.5-0.3-2.3-1.7-2.6-2.3c-0.7-1.5-0.7-3.3,0-4.5
		c0.4-0.8,1.2-1.4,2-1.9c-0.4,0.4-0.7,0.9-1.1,1.3L151.7,192.2z M360.5,186.1c0.5,0.5,0.8,1,1.1,1.6c0.5,1.1,0.7,2.7-0.1,3.8
		c-0.6,0.9-1.9,1.5-3.4,1.5c-1.6,0-3-0.7-3.6-1.7c-0.1-0.1,0-0.2-0.1-0.3c0.4,0.4,0.7,0.8,1,1L360.5,186.1z"/>
</g>
</svg>
