<?xml version="1.0" encoding="utf-8"?>
<!-- Generator: Adobe Illustrator 18.0.0, SVG Export Plug-In . SVG Version: 6.00 Build 0)  -->
<!DOCTYPE svg PUBLIC "-//W3C//DTD SVG 1.1//EN" "http://www.w3.org/Graphics/SVG/1.1/DTD/svg11.dtd">
<svg version="1.1" id="Layer_1" xmlns="http://www.w3.org/2000/svg" xmlns:xlink="http://www.w3.org/1999/xlink" x="0px" y="0px"
	 width="512px" height="512px" viewBox="0 0 512 512" enable-background="new 0 0 512 512" xml:space="preserve">
<g>
	<path fill="white" d="M423.8,184.1l-4.8,0.5c-51,4.9-101.2,14.5-149,28.6c-0.4,0.1-1,0.2-1.7,0.3c-3.6,0.7-6.3,1.3-7.9,3.2
		l-0.8,1l-0.1,1.3c0,0-0.4,5.9-0.6,8.4c-1.5,16.2-2,29.9-2.6,44.3c-0.2,4.5-0.3,9.2-0.6,14.1l-0.2,5.3l0.1,0
		c-0.7,18.8-1,37.7-1.1,56.5c-1.9-0.4-4-0.4-6.2,0.1c-17.5,3.9-33.3,12.3-45.7,24.3c-2.9,2.8-6,6.2-7.9,10.7
		c-2.1,5.1-2.1,10.8,0.1,15.6c4,8.8,13.6,12.7,20.9,12.7l0.2,0c7.8-0.1,14.3-3.8,19.7-7.4c9.2-6.2,15.6-12.2,19.9-19
		c3.6-5.6,5.8-11.8,6.5-18.1l0.3,0c-0.1-25.8,0.3-51.7,1.3-77.5l117.3-29.9c10.2-2.6,22.5-5.8,33-7.7l-4.3,67.3
		c-2.1-0.7-4.5-0.7-7.2-0.1c-17.5,3.9-33.3,12.3-45.7,24.3c-2.9,2.8-6,6.2-7.9,10.7c-2.1,5.1-2.1,10.8,0.1,15.6
		c4,8.8,13.6,12.7,20.9,12.7l0.2,0c7.8-0.1,14.3-3.8,19.7-7.4c9.2-6.2,15.6-12.2,19.9-19c3.7-5.8,5.9-12.2,6.5-18.6l0.2,0l5.9-93
		c0.6-8.8,1.1-18,1.3-27.2c0.2-8.3,0-16.8-0.5-25.2c0.1-0.9,0.1-1.7,0.2-2.6L423.8,184.1z M248.9,380.4c-3.8,5.9-9.4,11.2-17.7,16.7
		c-4.6,3.1-9.7,6-15.4,6l-0.1,3.9v-3.9c-4.9,0-11.3-2.8-13.7-8.1c-1.3-2.8-1.3-6.2,0-9.3c1.3-3.2,3.7-5.7,6.1-8
		c11.4-11,25.9-18.7,42-22.3c0.7-0.2,1.4-0.2,2-0.2c0.3,0,1.3,0,1.6,0.4c0.2,0.2,0.3,1,0.3,1.2C255.3,364.8,253.6,373.2,248.9,380.4
		z M378.9,251.5l-115,29.3c0.8-19.8,1.9-39.5,3.3-59c0.8-0.2,1.9-0.4,2.5-0.5c1-0.2,1.9-0.4,2.5-0.5c45.9-13.5,93.9-22.9,142.8-27.9
		c-0.7,8.4-0.8,16.7-1,24.8c-0.2,8.5-0.3,17.2-1.1,25.9C402.1,245.6,389.3,248.8,378.9,251.5z M403,351.3
		c-3.8,5.9-9.4,11.2-17.7,16.7c-4.6,3.1-9.7,6-15.4,6l-0.1,3.9v-3.9c-4.9,0-11.3-2.8-13.7-8.1c-1.3-2.8-1.3-6.2,0-9.3
		c1.3-3.2,3.7-5.7,6.1-8c11.4-11,25.9-18.7,41.9-22.3c0.7-0.2,1.4-0.2,2-0.2c0.3,0,1.3,0,1.6,0.4c0.2,0.2,0.3,1,0.3,1.2
		C409.4,335.7,407.6,344.1,403,351.3z"/>
	<path fill="white" d="M180.1,290.1c2.7-4.2,4.3-8.8,4.8-13.5l0.2,0c-0.1-23.2,0.5-46.5,1.5-69.5c4.4-3.9,7.3-5.7,12.3-6.2
		c3.7-0.4,7.6,0,11.6,0.3c1.1,0.1,2.2,0.2,3.3,0.3c10.6,0.8,19.1,0.1,26.7-2.3c6.6-2.1,12.4-5.4,18.3-8.9c8.1-4.8,17.3-10.6,25-18.2
		c1.8-1.8,2.1-4.5,0.6-6.6c-1.4-2.1-4.1-2.8-6.4-1.8c-9.5,4.2-18.1,5.4-25.5,3.4c-4.1-1.1-7.9-3.2-11.9-5.4c-3-1.6-6.1-3.3-9.5-4.6
		c-16.2-6.4-32.5-4.2-44.6,6c-2.2,1.8-4,4-6.1,8.8l0.4,0.2c-2.2,29.5-3.3,59.6-3.5,89.7c-1.1-0.1-2.3,0-3.5,0.2
		c-12.6,2.8-24.1,8.9-33.1,17.6c-2.1,2-4.5,4.6-5.9,8c-1.6,3.9-1.6,8.3,0.1,12c2.6,5.7,9.1,9.7,15.9,9.7h0.2
		c5.8-0.1,10.7-2.8,14.6-5.4C172.3,299.5,176.9,295,180.1,290.1z M191.5,169.2c9.9-8.3,23.2-10.1,36.6-4.7c2.9,1.1,5.7,2.7,8.6,4.2
		c4.3,2.3,8.7,4.7,13.6,6c5.3,1.4,11.1,1.6,17.1,0.5c-4.3,3.1-8.8,5.8-12.9,8.2c-5.5,3.3-10.9,6.3-16.6,8.2
		c-6.6,2.1-14.1,2.7-23.7,1.9c-1.1-0.1-2.1-0.2-3.2-0.3c-4.3-0.4-8.6-0.8-13.2-0.3c-4.5,0.5-7.9,1.8-11,3.7
		c0.4-7.9,0.9-15.9,1.5-23.7C189.7,170.8,190.6,169.9,191.5,169.2z M150.9,301.5l-0.1,3.9L150.9,301.5c-3.2,0-7.4-1.9-8.8-5.1
		c-0.8-1.7-0.8-3.8,0-5.7c0.9-2.1,2.5-3.8,4.1-5.3c7.9-7.7,18.1-13.1,29.3-15.6c0.4-0.1,0.8-0.1,1.2-0.1c0.1,0,0.1,0,0.2,0
		c0,0.1,0,0.1,0,0.2c1,5.4-0.2,11.1-3.4,16c-2.6,4-6.5,7.7-12.3,11.6C158,299.5,154.6,301.4,150.9,301.5z"/>
	<path fill="white" d="M121.5,344.1c0.1,2.4,0.1,7.4,0.2,12.3c0.1,5.1,0.1,10.2,0.2,12.7l7.9-0.2c-0.1-2.5-0.1-7.5-0.2-12.6
		c-0.1-5-0.1-10-0.2-12.4L121.5,344.1z"/>
	<path fill="white" d="M129.8,410.1c0.8-8.2,0.6-16.4-0.6-24.5l-7.8,1.1c1.1,7.5,1.3,15.1,0.6,22.6L129.8,410.1z"/>
	
		<rect x="88.4" y="375.7" transform="matrix(0.998 -6.312339e-02 6.312339e-02 0.998 -23.7682 6.91)" fill="white" width="18.1" height="7.9"/>
	<path fill="white" d="M143.6,372.7l-1.6,7.7c3.4,0.7,6.8,1,10.2,1c3.7,0,7.4-0.4,11-1.2l-1.7-7.7
		C155.8,373.8,149.5,373.9,143.6,372.7z"/>
	<path fill="white" d="M377.1,128.2c0-1.4-0.1-4.4-0.1-7.3c0-3-0.1-6-0.1-7.4l-7.9,0.2c0,1.4,0.1,4.4,0.1,7.3c0,3,0.1,6,0.1,7.4
		L377.1,128.2z"/>
	<path fill="white" d="M369.3,152l7.8,0.7c0.5-5,0.3-10-0.4-14.9L369,139C369.6,143.3,369.7,147.7,369.3,152z"/>
	
		<rect x="351.1" y="130.6" transform="matrix(-0.998 6.310383e-02 -6.310383e-02 -0.998 720.6725 246.3901)" fill="white" width="10.7" height="7.9"/>
	<path fill="white" d="M394,128.8c-3.3,0.7-6.7,0.7-10,0.1l-1.6,7.7c2.1,0.4,4.2,0.6,6.4,0.6c2.3,0,4.6-0.2,6.9-0.7L394,128.8z"/>
</g>
</svg>
