<?xml version="1.0" encoding="utf-8"?>
<!-- Generator: Adobe Illustrator 18.0.0, SVG Export Plug-In . SVG Version: 6.00 Build 0)  -->
<!DOCTYPE svg PUBLIC "-//W3C//DTD SVG 1.1//EN" "http://www.w3.org/Graphics/SVG/1.1/DTD/svg11.dtd">
<svg version="1.1" id="Layer_1" xmlns="http://www.w3.org/2000/svg" xmlns:xlink="http://www.w3.org/1999/xlink" x="0px" y="0px"
	 width="512px" height="512px" viewBox="0 0 512 512" enable-background="new 0 0 512 512" xml:space="preserve">
<g>
	<path fill="white" d="M424.9,358.8c1.7-1.7,3.1-3.2,2.9-102.6c-0.1-53.8-0.7-112-1-135.2c-0.1-6-5.1-11-11.1-11
		c-1.4,0-2.9,0.3-4.2,0.8c-30.7,12.5-70.4,28.7-85.4,34.7c-2.6,1-5,1.9-7.4,2l-0.6,0c-3.8,0-7.5-1.7-11.4-3.7
		c-9.2-4.6-21.9-9.7-34.2-14.6c-12.2-4.9-24.7-9.9-33.6-14.3c-9.6-4.8-19.4-9.8-30.3-13.4c-3.2-1.1-6.9-2-10.6-1.5
		c-1.8,0.3-3.3,0.9-4.7,1.4l-14.2,5.4c-26.3,10-53.5,20.4-77.8,31.5c-3.6,1.6-8.4,3.8-10.9,7.8c-1.8,2.8-1.9,5.9-2,8.2
		c-0.8,20.5-1.6,69.8-2.4,117.4c-0.7,40.2-1.3,81.8-2,105.9c-0.1,3,1,5.9,3.1,8c3.2,3.3,8.3,4.3,12.5,2.5
		c17.3-7.5,31.2-12.4,47.3-18.1c12.8-4.5,27.2-9.6,45.8-16.9c1.1-0.4,2.6-0.6,4.1-0.5c1.5,0.1,2.9,0.8,4.8,1.8
		c5.6,2.9,12.5,5.5,19.8,8.4c4.7,1.8,9.6,3.7,14.4,5.7c21.9,9.3,56.6,23,84.3,33.8l1.3,0.5l2.4-0.8c29-9.9,65.1-22.3,91.2-36.4
		C418.8,363.5,422.3,361.5,424.9,358.8z M189.9,345.7c-18.4,7.2-32.9,12.3-45.6,16.8c-16.3,5.7-30.3,10.7-47.8,18.3
		c-1.3,0.6-2.7,0.2-3.7-0.7c-0.4-0.4-0.9-1.2-0.9-2.3c0.7-24.1,1.3-65.7,2-105.9c0.8-47.6,1.6-96.8,2.4-117.2c0.1-2,0.2-3.3,0.8-4.3
		c1.2-1.9,4.8-3.6,7.5-4.8c24-11,51.1-21.3,77.3-31.3l14.2-5.4c0.5-0.2,0.9-0.3,1.4-0.5c-0.9,29.5-1.4,53.7-1.8,76
		c-4.5,1.1-8.5,2.8-12.1,4.4l3.4,7.1c3.2-1.5,6-2.5,8.6-3.3c-0.2,14.1-0.3,27.5-0.4,41.2c-0.3,31.9-0.6,65-1.7,111.2
		C192.3,345,191.1,345.3,189.9,345.7z M224.3,355.3c-7.1-2.7-13.9-5.3-19-8c-1.1-0.5-2.4-1.2-3.8-1.7c1.1-46.6,1.4-79.8,1.7-111.9
		c0.1-14.2,0.2-28.1,0.4-42.7c0.8-0.1,1.6-0.2,2.4-0.2V183c-0.8,0-1.6,0-2.3,0.1c0.3-21.8,0.8-45.5,1.7-74.3
		c0.2,0.1,0.5,0.1,0.7,0.2c10.4,3.5,20,8.3,29.3,13c9.2,4.6,21.9,9.7,34.2,14.6c12.2,4.9,24.7,9.9,33.6,14.3c4.8,2.4,10,4.7,16,4.5
		c0.3,0,0.6-0.1,0.9-0.1c1,77,0,126.3-2.1,222.5l-0.3,14.9c-26.7-10.5-58.2-23-78.7-31.6C234,359,229.1,357.1,224.3,355.3z
		 M325.5,393.1l0.3-15c2.1-97.2,3.1-146.5,2-224.8c0.4-0.2,0.8-0.3,1.2-0.5c15-6,54.8-22.2,85.5-34.7c1.9-0.8,4.4,0.4,4.5,2.9
		c1,75.7,1.9,219.3-0.3,232.9c-1.8,1.7-4.4,3.1-7.2,4.7C387.1,371.8,353.5,383.5,325.5,393.1z"/>
	<path fill="white" d="M387.5,210.1c-2.2-1.2-5.2-1.3-8-0.3c-2,0.7-3.8,1.9-5.3,3.3c-2.1-2.2-5.2-3.7-8.5-3.8l-0.5,0
		c-1.9,0-3.6,0.5-4.9,1.4c-2.6,1.9-2.8,4.9-2.8,5.9c-0.5,9.1,4.7,17.2,8.9,23.8l5.6,8.9l3.1-1.4c1.8-0.8,2.8-2.1,3.5-2.9
		c5.7-6.8,13.4-16,13.3-26.7C391.8,213.2,389.1,211,387.5,210.1z M374.1,238.1l-1.2-1.8c-4.5-7.1-7.9-13-7.6-19c0,0,0,0,0,0
		c2.1,0.1,3.9,1.6,4,2.8c0.3,3.1,2.3,5.3,5,5.3l4.2-1l0-3c0-1.6,1.5-3.4,3.5-4.1c0.5-0.2,0.9-0.3,1.3-0.3c0.2,0,0.4,0,0.4,0
		c0,0,0.2,0.4,0.2,1.4C384.1,225,379.7,231.3,374.1,238.1z"/>
	<polygon fill="white" points="139.1,231.9 145.9,235.9 155.2,219.9 148.4,215.9 	"/>
	<path fill="white" d="M157.3,208l6.7,4.1c2.9-4.8,6.9-8.9,11.6-12l-4.4-6.5C165.7,197.3,160.9,202.3,157.3,208z"/>
	<path fill="white" d="M216.2,191.7c5,0,9.5,1.7,13.9,5.2l4.9-6.2c-5.9-4.6-12-6.8-18.8-6.8V191.7z"/>
	<path fill="white" d="M247.5,198.5l-5.2,5.9c3.9,3.5,7.2,7.5,9.8,12.1l6.9-3.9C255.9,207.3,252.1,202.5,247.5,198.5z"/>
	
		<rect x="257.2" y="228.7" transform="matrix(0.994 -0.1094 0.1094 0.994 -24.5168 29.9852)" fill="white" width="7.9" height="19.7"/>
	<path fill="white" d="M268.4,261.4l-7.9-0.3c-0.2,6.4,0.6,16.7,2.5,22.8l7.5-2.4C269,276.5,268.2,267.1,268.4,261.4z"/>
	<path fill="white" d="M275.3,295.6l-7.8,1.4c0.6,3.6,2.9,7.5,6.8,11.8c3.6,4,8,6.8,13,8.5l2.5-7.5c-3.8-1.3-6.9-3.3-9.7-6.3
		C276.4,299.3,275.5,296.7,275.3,295.6z"/>
	<path fill="white" d="M313.9,311.9c-6.6,2.2-9.5,2.7-16.1,1.1l-1.8,7.7c3.3,0.8,6,1.1,8.5,1.1c3.9,0,7.4-0.9,12-2.4L313.9,311.9z
		"/>
	<path fill="white" d="M332,305.9l3.9,6.9c9.2-5.2,14.4-13.9,16.3-20.4l-7.6-2.2C343.2,295.2,339.1,301.9,332,305.9z"/>
	<path fill="white" d="M373.3,182.9c-6.3,0-12.4,2-17.5,5.8c-10,7.4-15.1,17.1-15.6,29.6l0,0.6c0,0.4-0.1,0.8,0,1.1
		c0.1,14.3,8,27.2,14.9,38.6l0.7,1.2c4.3,7,4.8,7.9,10.4,20.6c1.2,2.8,4,4.6,7,4.6c2.9,0,5.6-1.6,6.8-4.3c1-2,2.6-5.3,5.3-11
		c2.7-5.5,5.8-11.1,10.1-18.2l1-1.7c7.3-11.9,16.5-26.8,11.1-42C402.5,193.5,387.8,182.9,373.3,182.9z M389.8,245.6l-1,1.7
		c-4.4,7.2-7.7,13.1-10.5,18.8c-2.6,5.3-4.1,8.5-5.1,10.6c-5.6-12.7-6.3-13.8-10.7-21l-0.7-1.2c-6.4-10.5-13.6-22.4-13.7-34.5
		c0-0.2,0-0.3,0-0.5l0-0.8l0-0.7c0.5-9.9,4.5-17.2,12.4-23c3.9-2.8,8.2-4.3,12.9-4.3c11.1,0,22.9,8.6,26.8,19.6
		C404.3,222,396.2,235.1,389.8,245.6z"/>
	<path fill="white" d="M130.9,250c-1.1,2.1-5.4,9.8-6.7,11.7l6.6,4.2c1.4-2.2,5.9-10.3,7-12.3l3.7-7l-6.9-3.7L130.9,250z"/>
</g>
</svg>
